<svg width="25" height="14" viewBox="0 0 25 14" fill="none" xmlns="http://www.w3.org/2000/svg">
<path d="M19 9V9.5L19.5 12.7071H15L15.5 9.5V9H13H9H6.5V9.5L7 12.7071H2.5L3 9.5V9M17.9282 5C17.5816 4.39961 17.1556 3.84185 16.6569 3.34315C15.1566 1.84285 13.1217 1 11 1C8.87827 1 6.84344 1.84285 5.34315 3.34315C4.80946 3.87683 4.35896 4.35118 4 5" stroke="black" stroke-linecap="round" stroke-linejoin="round"/>
<path d="M17.93 5H22C22.5304 5 23.0391 5.21071 23.4142 5.58579C23.7893 5.96086 24 6.46957 24 7C24 7.53043 23.7893 8.03914 23.4142 8.41421C23.0391 8.78929 22.5304 9 22 9H19" stroke="black" stroke-linecap="round" stroke-linejoin="round"/>
<path d="M4 5H3.00001C2.46957 5 1.96085 5.21072 1.58578 5.58579C1.21071 5.96086 0.999992 6.46957 0.999992 7C0.999992 7.53044 1.21071 8.03914 1.58578 8.41422C1.96085 8.78929 2.46956 9 2.99999 9" stroke="black" stroke-linecap="round" stroke-linejoin="round"/>
</svg>
